<svg xmlns="http://www.w3.org/2000/svg" width="32" height="32" viewBox="0 0 24 24"><metadata><rdf:RDF xmlns:rdf="http://www.w3.org/1999/02/22-rdf-syntax-ns#" xmlns:dc="http://purl.org/dc/elements/1.1/"><rdf:Description><dc:creator>RealFaviconGenerator</dc:creator><dc:source>https://realfavicongenerator.net</dc:source></rdf:Description></rdf:RDF></metadata><path fill="currentColor" d="M17 2.154q2.02 0 3.433 1.413T21.846 7t-1.413 3.433T17 11.846t-3.433-1.413T12.154 7t1.413-3.433T17 2.154M5.702 18.298q-1.063-1.063-1.633-2.425T3.5 13q0-2.439 1.4-4.392t3.723-2.656q.552-.28 1.062.057q.51.339.48.962q-.007 1.383.512 2.643q.52 1.261 1.492 2.234q.968.967 2.216 1.484q1.248.516 2.625.508q.565.002.894.475t.175 1.071q-.754 2.31-2.704 3.712T11 20.5q-1.511 0-2.873-.57t-2.425-1.632"></path><style>@media (prefers-color-scheme: light) { :root { filter: contrast(1) brightness(0.1); } }
@media (prefers-color-scheme: dark) { :root { filter: contrast(0.3846153846153846) brightness(4.5); } }
</style></svg>